<?xml version="1.0" encoding="utf-8"?>
<!-- Generator: Adobe Illustrator 19.2.1, SVG Export Plug-In . SVG Version: 6.00 Build 0)  -->
<svg version="1.1" id="Capa_1" xmlns="http://www.w3.org/2000/svg" xmlns:xlink="http://www.w3.org/1999/xlink" x="0px" y="0px"
	 viewBox="0 0 1400 980" enable-background="new 0 0 1400 980" xml:space="preserve">
<g>
	<path fill="#151D38" d="M366.8,731.9c-0.2-0.3-0.5-0.6-0.7-1c-0.5-1.2,0-2,1.3-2.2c0.6-0.1,1.3,0,1.9,0c15.8,0,31.7,0,47.5,0
		c0.6,0,1.3,0,1.9,0c0.2,0,0.6-0.1,0.6-0.2c0.2-0.4-0.3-0.5-0.5-0.6c-2-1.1-3.8-2.3-5.5-3.8c-7.3-6.4-11.2-14.4-11.3-24.2
		c0-0.3,0-0.6,0-1c0.1-1.1-0.3-1.5-1.5-1.5c-2.9,0.1-5.8-0.1-8.6,0.1c-3.6,0.2-6.3-2.7-6-5.9c0.1-0.9,0-1.9,0-2.9c0-4,2-6.1,6-6.1
		c4.2,0,8.5-0.1,12.7,0c1.5,0,2.4-0.4,3.3-1.7c6.4-8.8,15.2-13.3,26-13.5c7-0.1,13.4,2,19.1,6.1c1.7,1.3,1.8,1.2,3.1-0.5
		c15.8-21.2,31.5-42.3,47.3-63.5c1.2-1.6,1.2-1.6-0.4-3c-5.5-4.9-10.9-9.9-15.1-16c-2-2.8-3.7-5.8-4.2-9.3
		c-1.1-6.4,3.4-11.3,9.8-10.7c2.8,0.3,5.4,0.4,8-1c1.4-0.8,3-0.9,4.6-1.1c1.3-0.2,1.4-0.2,0.7-1.3c-0.5-0.8-0.9-1.5-1-2.4
		c-0.3-2.3,0.8-4.6,2.8-5.6c2.2-1.1,4.6-0.8,6.4,1c1.9,2,4,4,5.6,6.2c2.7,3.7,6.1,5.6,10.7,6.2c3.4,0.4,6.5,0.6,9.9-0.2
		c23-5.6,46-11,69-16.5c1.7-0.4,3.4-0.9,5.1-1.2c0.9-0.2,1.4-0.6,1.5-1.6c0.5-2.9,1-5.8,1.5-8.7c0.2-0.9-0.2-1.7-0.5-2.5
		c-3.5-9-7.5-17.8-11.6-26.6c-9.8-20.8-20.1-41.4-29.6-62.4c-5.2-11.6-10.3-23.2-14.4-35.3c-1.5-4.6-2.9-9.2-3.6-13.9
		c-1.1-7.2-0.1-14.2,1.8-21.1c0.2-0.9,0.5-1.9,0.8-2.8c0.2-0.7-0.1-0.9-0.7-0.8c-1.8,0.2-3.6,0.5-5.5,0.7c-2.6,0.4-5.2,0.7-7.8,1.1
		c-0.9,0.1-1.8,0.2-2.3-0.8c-0.5-1,0.2-1.6,0.8-2.3c3.8-3.8,7.5-7.7,11.2-11.5c0.4-0.4,0.8-0.8,1.2-1.2c0.6-0.6,0.3-0.9-0.3-1.2
		c-0.6-0.2-1.2-0.5-1.8-0.7c-4.2-1.5-8.4-3.1-12.6-4.6c-0.6-0.2-1.2-0.4-1.7-0.8c-0.8-0.5-0.9-1.3-0.3-2.1c0.5-0.5,1.1-0.9,1.7-1.4
		c3.9-2.8,7.8-5.6,11.7-8.4c1.1-0.8,1.1-0.9,0-1.6c-4.7-2.8-9.5-5.6-14.3-8.4c-0.6-0.4-1.3-0.7-1.8-1.1c-1.1-0.9-0.8-2.2,0.5-2.6
		c1.4-0.4,2.8-0.5,4.2-0.7c12-1.7,24.1-3.3,36.1-5c9.8-1.4,19.6-2.8,29.4-4.1c9.8-1.4,19.6-2.7,29.5-4c5.7-0.8,11.4-2,17.1-2.1
		c11.5-0.2,21.9,2.7,29.4,12.2c3.6,4.5,5.5,9.9,6.5,15.5c0.2,1.2,0.6,1.8,1.7,2.3c10.7,4.4,15.6,14.9,14.4,25.9
		c-0.6,5.1-2.1,9.8-4.3,14.4c-1,2-0.9,2,1.2,2.8c6,2.2,9.8,7.7,9.5,14.1c-0.2,6.2-4.5,11.5-10.5,13.2c-1.2,0.3-2.5,0.6-3.8,0.5
		c-1.3,0-1.6,0.5-1.8,1.6c-0.5,4.4-1.1,8.7-1.7,13.1c-1.2,9.3-2.4,18.6-3.6,27.8c-1.2,9.4-2.4,18.9-3.7,28.3c-0.4,3-0.8,6-1.1,9
		c0,0.3-0.3,0.7,0.2,0.7c0.1,0,0.4-0.3,0.5-0.5c2.3-4.4,4.5-8.8,6.8-13.2c9.5-18.5,19-37,28.6-55.4c1.8-3.4,2.7-7.1,4.7-10.4
		c0.4-0.7,0.2-1.4,0-2.1c-1.4-4.8-0.7-9.3,1.5-13.7c3.4-6.7,6.7-13.4,10.1-20.2c0.3-0.6,0.6-1.3,1-1.9c1.5-2.2,4.4-3,6.8-1.9
		c2.4,1.1,3.8,3.9,2.9,6.4c-0.8,2.1-1.9,4.1-2.8,6.1c-0.6,1.3-0.6,1.4,0.8,1.9c1.3,0.4,2.3,1.2,2.9,2.3c0.4,0.8,1,1.1,1.9,1
		c1.4-0.2,2.7,0.1,3.8,1.1c0.9,0.8,1.3,0.4,1.7-0.5c0.8-1.7,1.7-3.4,2.6-5.1c1-1.9,2.5-3,4.8-3.1c3.3-0.1,5.8,2.6,5.5,5.9
		c-0.1,0.7-0.2,1.4-0.6,2.1c-3.9,7.8-7.7,15.6-11.7,23.4c-1.8,3.5-4.8,6-8.5,7.4c-1.2,0.5-2,1.2-2.5,2.4c-0.5,1.2-1.2,2.4-1.8,3.6
		c-0.5,1.1-0.9,2.3-2.4,2.2c-0.6,0-0.7,0.6-0.9,1c-12.3,24-24.6,47.9-37,71.9c-5.3,10.4-10.7,20.7-16,31.1c-0.9,1.8-0.9,1.8,0.9,2.2
		c5.3,1.3,8.5,6,7.5,11.4c-2.7,15.2-5.4,30.4-8.1,45.6c-1.5,8.4-3,16.8-4.5,25.2c0,0.2-0.1,0.5-0.1,0.7c-0.2,1.7-0.2,1.7,1.4,1.5
		c1.6-0.3,3.2-0.5,4.8-0.3c1.6,0.1,2.4-0.5,3-2c3.1-7.4,6.4-14.8,9.6-22.2c22.3-51.7,44.6-103.5,67-155.2
		c12.1-28,24.2-56.1,36.3-84.1c0.1-0.1,0.1-0.3,0.2-0.4c0.9-1.3,0.5-2.1-0.6-3.2c-3.5-3.5-3.3-9.1,0.3-12.4c2.7-2.5,7-3,10.3-1.1
		c3.3,2,5,5.9,4,9.7c-0.9,3.6-4.1,6.2-7.8,6.4c-0.5,0-1,0.1-1.4,0c-1-0.1-1.4,0.3-1.8,1.2c-0.7,1.7-1.4,3.4-2.2,5
		c-0.6,1.2-0.4,2.1,0.5,3.2c4.1,4.9,8.2,9.8,12.3,14.7c12.7,15.2,25.4,30.5,38.1,45.7c0.5,0.6,1.1,1.2,1.5,1.9
		c0.8,1.2,0.3,2.3-1.1,2.4c-1,0.1-2.1-0.1-3.1-0.1c-12.5-0.6-25.1-1.2-37.6-1.7c-11.9-0.6-23.8-1.1-35.7-1.7
		c-3.1-0.1-2.4-0.3-3.6,2.4c-9.1,21.1-18.3,42.3-27.4,63.4c-18,41.8-36.1,83.6-54.1,125.5c-1.1,2.5-1.1,2.6,1.7,2.9
		c11.6,1.4,21.6,6.1,30.1,14.1c5.9,5.5,10.3,12.2,13.3,19.7c0.8,2,0.4,2,2.9,2c3.3,0,6.6,0,9.8,0c9.8,0,16.4,7.7,16.2,16.3
		c-0.2,4.6,0,9.3-0.1,13.9c0,1.2,0.4,1.5,1.5,1.5c4.4,0,8.8-0.1,13.2,0c1.4,0,1.7-0.8,2.2-1.7c3.9-7,9.8-10.5,17.8-10.4
		c2.6,0,5.1,0.7,7.4,1.9c1,0.5,1.2,0.2,1.2-0.8c0-3.5,0.5-6.8,1.5-10.2c5.2-17.2,22.2-28.1,40.1-25.6c5.1,0.7,9.8,2.4,14.1,5
		c1.7,1,1.7,1,2-0.9c1.7-11.4,6.2-21.5,13.7-30.1c10.4-11.9,23.4-18.9,39.2-20.5c16.3-1.7,30.9,2.7,43.7,12.8c1,0.8,2,1.2,3.3,1.2
		c11.7-0.2,22.4,3.2,32.1,9.7c0.2,0.1,0.4,0.3,0.6,0.4c0.7,0.4,1,0.2,1.1-0.5c0.4-2.7,0.7-5.4,1.3-8c3.6-17.5,11.5-32.8,23.9-45.7
		c13.9-14.5,30.7-23.8,50.5-27c30.4-5,57.2,2.8,79.9,23.8c14.8,13.7,23.7,30.7,27.6,50.5c1.3,6.8,1.4,13.7,1.2,20.6
		c-0.6,23.5-9.6,43.4-25.5,60.4c-2.5,2.7-5.3,5.1-8.1,7.5c-1,0.8-2,1.3-3.3,1.2c-0.6-0.1-1.1,0-1.7,0c-126.3,0-252.6,0-378.9,0
		c-10.8,0-21.6,0-32.4-0.1c-1.6,0-2.6,0.5-3.5,1.8c-5.8,8.6-13.6,15-23.1,19.2c-0.4,0.2-0.9,0.4-1.3,0.6c-0.2,0.1-0.5,0.2-0.3,0.5
		c0,0.1,0.3,0.1,0.4,0.2c0.7,0,1.4,0,2.2,0c34.1,0,68.2,0,102.2,0c0.6,0,1.1,0,1.7,0c2.9,0,3.3,0.7,1.9,3.3
		C670.8,731.9,518.8,731.9,366.8,731.9z"/>
	<path fill="#E86AA0" d="M521.6,587.2c-0.1,0.3-0.3,0.7,0.3,0.7c-0.1,1.2,0.6,1.7,1.5,2.2c1.3,0.7,2.1,1.8,2.3,3.2
		c0.1,1.1,0.7,1.7,1.5,2.3c3.8,3.1,7.5,6.5,11,10c2.1,2.2,4.1,4.5,5.7,7.1c0.9,1.4,1.6,2.9,1.8,4.7c0.2,2.6-1,4.3-3.6,4.9
		c-0.9,0.2-1.7,0.1-2.6,0c-2.9-0.5-5.5-1.7-8-3.1c-10.6-5.8-19.9-13.4-28.8-21.4c-3.4-3-6.6-6.3-9.3-10c-1.1-1.5-2.1-3-2.6-4.8
		c-1.2-4,1.3-6.9,5.4-6.3c1.6,0.2,3.1,0.7,4.6,1.2c0.4,0.2,0.9,0.4,1.4,0.5c0.6,0.1,2.5-0.9,2.4-1.3c-0.2-0.8-1.1-0.9-1.7-1.2
		c-1-0.5-2-0.9-3.1-1.3c-2.5-0.8-5.1-1.5-7.8-1.2c-3.6,0.4-5.5,2.9-5.2,6.4c0.2,2.1,1,4,2,5.8c1.6,2.9,3.6,5.5,5.8,7.9
		c6.7,7.6,14.5,14,22.7,19.9c5.8,4.2,11.9,8,18.7,10.6c2,0.8,4.1,1.3,6.3,1.4c4.4,0.3,7.2-2.2,7.1-6.2c-0.1-1.6-0.6-3.1-1.3-4.6
		c-1.7-3.7-4.2-7-7-10c-5.5-6.1-11.7-11.4-18.1-16.4c-0.3-0.2-0.6-0.5-1.1-0.5C521.8,587.7,521.7,587.5,521.6,587.2
		c-0.3,0.1,0.2,0.3-0.1,0.2c-0.2-0.1-0.2-0.1,0-0.3C521.7,586.9,521.3,587.2,521.6,587.2z"/>
	<path fill="#151D38" d="M519.9,586.6c-0.1-0.1,0.2-0.5-0.2-0.3C519.7,586.4,519.8,586.5,519.9,586.6l0.1,0.1
		C520,586.7,519.9,586.6,519.9,586.6z"/>
	<path fill="#151D38" d="M505.4,596.2c0.1-0.1,0.1-0.3,0-0.3c0,0-0.1,0.1-0.1,0.1C505.2,596.3,505.3,595.9,505.4,596.2
		c0.2,0.5,0.7,0.8,1.1,1.1c0.2,0.1,0.5,0.3,0.6,0.3c0.2-0.3,0-0.5-0.1-0.8C506.8,595.9,506.1,595.9,505.4,596.2z"/>
	<path fill="#FFFFFF" d="M495.9,586.1c0.2,0.4,0.5,0.4,0.8,0.2c-0.1,0.1-0.2,0.3-0.2,0.4c1,2.3,2.9,3.8,4.6,5.5
		c0.2,0.2,0.4,0.1,0.5-0.2c0.3-0.9-0.5-2.6-1.5-3.1c-1.4-0.6-2.7-1.3-3.5-2.7C496.3,586.2,496.1,586,495.9,586.1
		c-0.4-1.9-1.7-3.5-1.5-5.6c0-0.2-0.1-0.5-0.4-0.4c-0.2,0.1-0.4,0.3-0.4,0.5c-0.3,0.7,0,1.4,0.2,2.1
		C494.3,583.9,494.9,585.1,495.9,586.1z"/>
	<path fill="#ACDCF6" d="M1017,703.6c45.3,0,90.5,0,135.8,0c0.6,0,1.3,0,1.9,0c1,0.1,1.8-0.3,2.6-0.9c2.8-2.4,5.5-4.8,8-7.6
		c20.1-22.1,27.9-47.9,22.9-77.3c-3.3-19.5-12.5-36.2-27.1-49.6c-22.5-20.6-49.1-28.1-79-22.2c-23.2,4.5-41.6,17-55.3,36.3
		c-9.2,13-14.4,27.5-15.9,43.4c-0.1,1.1,0.3,2.4-0.9,3c-1.4,0.8-2.2-0.5-3.1-1.2c-12.7-9.3-26.9-12.6-42.4-9.8
		c-20.5,3.8-37.7,20.7-41.8,41.1c-1.1,5.5-1.2,11.1-0.9,16.7c0,0.7,0.1,1.5-0.6,1.9c-0.8,0.5-1.5,0.2-2.2-0.4
		c-0.2-0.2-0.5-0.4-0.8-0.6c-8.6-6.3-19.6-6.8-28.7-1.3c-9.4,5.7-13.6,16-12.3,25.3c0.4,3.2-0.3,3,3.5,3
		C926.2,703.6,971.6,703.6,1017,703.6z"/>
	<path fill="#FAE0D6" d="M651.8,552.4c2-0.1,4.6-0.4,7.2-0.7c1.4-0.2,2.2-0.9,2.9-2.1c7.1-13.9,14.3-27.7,21.4-41.6
		c0.4-0.8,0.7-1.6,0.8-2.5c1.3-10.4,2.6-20.8,4-31.2c2.4-18.6,4.8-37.3,7.2-55.9c0.2-1.2,0.5-2.3-1.1-2.9c-0.7-0.2-0.7-1.1-0.4-1.7
		c0.3-0.8,1-1,1.8-0.8c0.5,0.1,1.1,0.3,1.6,0.5c4.4,1.2,9.2-0.5,11.9-4.2c2.8-3.9,3-8.8,0.5-12.8c-2.5-4-7.3-5.9-11.8-4.9
		c-0.7,0.2-1.4,0.4-2.1,0.6c-1,0.2-1.9,0-1.9-1.2c0.1-1.3-0.8-1.5-1.7-1.9c-3-1.2-5.8-2.7-8.4-4.6c-6.2-4.5-9.9-10.6-11-18.2
		c-0.4-3.1-0.4-2.7-3.3-2.4c-0.3,0-0.6,0.1-0.9,0.2c-5.1,0.7-10.3,1.4-15.4,2.1c-10.1,1.4-20.3,2.7-30.4,4.1
		c-10.1,1.4-20.1,2.7-30.2,4.1c-8.6,1.2-17.1,2.3-25.7,3.4c-1.1,0.1-1.7,0.6-2.1,1.6c-1.8,5.3-2.9,10.8-3.1,16.4
		c-0.1,1.1,0.1,1.7,1.7,1.4c4.5-1,9.8,1.7,10.9,7.3c1,5-2,9.5-7.2,10.8c-1.8,0.5-1.8,0.5-1.1,2.3c2.5,7.1,5.3,14.1,8.2,21
		c9,21.1,19.3,41.6,29.1,62.3c6.3,13.1,12.6,26.2,17.9,39.8c0.4,1.1,1.1,1.9,2.1,2.5c0.8,0.4,1.5,0.9,2.2,1.4
		C633.3,549.4,641.8,552.2,651.8,552.4z"/>
	<path fill="#CCD6DA" d="M745.3,678.8c0-27.4-21.3-49.6-48.5-50.5c-27.7-1-51,20.4-52,48.4c-1,28.1,20.9,51.2,49.1,52
		C721,729.4,744.8,708,745.3,678.8z"/>
	<path fill="#151D38" d="M833.3,703.6c12.7,0,25.4,0,38.2,0c0.6,0,1.3,0,1.9,0c1,0,1.3-0.4,1.1-1.3c-0.5-2-0.4-4.1-0.4-6.2
		c0.4-14.4,12.4-26.6,26.7-27.5c5.7-0.3,11.1,0.8,16.2,3.6c1.5,0.8,1.6,0.8,1.6-0.9c0-3.4,0.1-6.7,0.7-10
		c3.3-18.4,13.1-32.1,29.6-41.1c5.5-3,11.5-4.8,17.7-5.8c0.4-0.1,0.9,0.1,0.9-0.5c0-0.2-0.3-0.5-0.6-0.7c-0.4-0.4-0.9-0.7-1.4-1
		c-12.3-8.1-25.8-11.2-40.4-9c-22.5,3.5-40.6,19.9-46.3,41.9c-0.8,3.3-1.3,6.6-1.7,9.9c-0.2,1.7-1.2,2.2-2.6,1.3
		c-0.6-0.4-1.2-0.9-1.7-1.3c-11.2-7.9-26.3-8.2-37.6-0.5c-10.6,7.2-15.6,17.5-15.1,30.3c0,1,0.6,2.2-0.5,2.9
		c-1.3,0.8-2.1-0.4-2.9-0.9c-6.4-4.2-14.4-3.7-19.9,1.5c-2.9,2.7-4.9,5.9-4.5,10.1c0.1,0.9,0,1.8,0,2.6c0,2.3,0,2.3,2.4,2.4
		c0.3,0,0.6,0,1,0C808,703.6,820.7,703.6,833.3,703.6z"/>
	<path fill="#FFFFFF" d="M552.3,619.9c0,2.8-1,5.2-3.3,6.9c-2.1,1.6-4.6,2.1-7.3,1.8c-4.3-0.4-8.2-1.9-12.1-3.7
		c-5.9-2.9-11.3-6.6-16.6-10.5c-1.6-1.2-1.6-1.2-2.7,0.3c-16.1,21.7-32.3,43.3-48.4,65c-0.2,0.3-0.5,0.6-0.7,1
		c-0.4,0.7-0.2,1.2,0.7,1.2c0.3,0,0.6-0.1,1-0.1c13.1-1.5,26.2-3,39.3-4.5c1.3-0.1,2-0.4,2.3-1.8c1.8-8.3,11.2-13,19.4-8.8
		c1,0.5,1.7,0.5,2.6,0c3.3-1.8,6.9-2,10.4-0.9c1.3,0.4,2.3,0.2,3.3-0.5c4.2-2.7,7.7-6,9.9-10.5c0.3-0.6,0.5-1.3,1.1-1.4
		c1.3-0.2,1.5-1.3,1.7-2.3c3.2-11.2,6.4-22.4,9.6-33.6c0.5-1.8,1.2-3.5,2.3-5c4.3-5.6,10-7.8,16.9-6.4c1.7,0.3,3.1,0.2,4.8-0.4
		c6.9-2.8,13.3-1.7,19,3.1c0.3,0.3,0.6,0.6,0.9,0.8c0.4,0.3,0.7,0.4,0.9-0.2c0.1-0.3,0.2-0.6,0.2-0.9c1.8-10.9,3.7-21.7,5.5-32.6
		c0.3-2.1,0.3-2.1-1.7-1.6c-0.2,0-0.3,0.1-0.5,0.1c-20.7,4.9-41.3,9.9-62,14.8c-4.7,1.1-9.3,2.2-13.9,3.7c-1.3,0.4-1.3,0.6-0.3,1.5
		c2.2,2.1,4.4,4.2,6.5,6.3c3.5,3.6,6.7,7.5,9,12C551.5,615,552.3,617.3,552.3,619.9z"/>
	<path fill="#7DA4EC" d="M665.1,577.2c-7,0.1-12.1-6.3-10.4-13.2c0.5-2,1.6-3.7,2.4-5.5c0.4-0.9,1-1.8,1.4-2.8
		c0.4-0.7,0.1-1-0.7-0.9c-0.4,0-0.8,0.1-1.2,0.1c-4.6,0.6-9.2,0.4-13.8-0.4c-7.2-1.3-13.8-4.1-20-7.8c-1.5-0.9-1.6-0.9-1.9,0.8
		c-1,5.7-1.9,11.3-2.9,17c-2.7,15.9-5.4,31.8-8.1,47.7c-0.2,1.2-0.1,2.2,0.4,3.2c3,6.8,5.9,13.6,8.8,20.5c3.5,8.1,7,16.1,10.5,24.2
		c1.2,2.8,0.6,2.4,3.7,2.1c3-0.2,6-0.7,9.1-1c1.6-0.1,2.5-0.8,3.1-2.4c3.2-8.5,8.4-15.6,15.4-21.3c1.2-1,1.8-2.1,2-3.6
		c2.6-15,5.3-30.1,8-45.1c0.8-4.7,1.7-9.4,2.5-14.2c0.1-0.4,0.1-1-0.1-1.1c-0.4-0.2-0.6,0.3-0.9,0.5
		C670.4,576.1,668,577.2,665.1,577.2z"/>
	<path fill="#FFFFFF" d="M562.5,728.7c36.8,0,73.6,0,110.4,0c0.7,0,1.4,0,2.2,0c0.3,0,0.7,0.1,0.7-0.3c0-0.4-0.4-0.4-0.7-0.5
		c-0.3-0.2-0.7-0.3-1.1-0.5c-9.3-4-17-10.2-22.7-18.6c-1.3-1.9-2.6-2.3-4.7-2.3c-59.2,0.1-118.4,0-177.6,0c-0.5,0-1,0-1.4,0
		c-1.8,0-1.8,0-2.4,1.9c-2.4,8-7.1,14.2-14.2,18.7c-0.7,0.4-2.1,0.7-1.9,1.4c0.2,0.6,1.6,0.3,2.4,0.3
		C488.5,728.7,525.5,728.7,562.5,728.7z"/>
	<path fill="#7DA4EC" d="M666.1,574.1c2.3,0,4.6-1.9,6.1-4.9c6.3-12.2,12.6-24.4,18.9-36.7c15.5-30,30.9-59.9,46.4-89.9
		c1.2-2.3,2.5-4.7,3.6-7c0.9-1.9,0.8-2-1-2.9c-3.1-1.6-6.3-3.2-9.4-4.7c-2.1-1-2.2-1-3.3,1c-0.1,0.1-0.1,0.3-0.2,0.4
		c-11.9,23.1-23.8,46.2-35.7,69.2c-9.7,18.8-19.4,37.6-29.1,56.5c-1.4,2.7-2.9,5.4-4.2,8.1C655.8,568.4,659.3,574.1,666.1,574.1z"/>
	<path fill="#E86AA0" d="M820.8,430.2C820.8,430.2,820.8,430.2,820.8,430.2c11.4,0.5,22.8,1.1,34.2,1.7c0.7,0,1.7,0.4,2-0.2
		c0.4-0.7-0.5-1.2-0.9-1.7c-15.5-18.7-31.1-37.4-46.6-56.1c-0.3-0.4-0.6-0.7-0.9-1.1c-0.4-0.4-0.8-0.5-1.1,0.1
		c-0.2,0.5-0.4,1-0.7,1.5c-2.4,5.6-4.9,11.3-7.3,16.9c-5,11.5-9.9,23-14.9,34.5c-1.1,2.5-1.1,2.5,1.5,2.6
		C797.6,429.1,809.2,429.6,820.8,430.2z"/>
	<path fill="#CCD6DA" d="M463.4,699.3c0-16-13.3-29.2-29.2-29c-17.3,0.2-29.3,14.7-29.1,29.5c0.3,15.9,13.1,28.9,29.1,28.9
		C450.7,728.7,463.7,714.9,463.4,699.3z"/>
	<path fill="#FFF3A2" d="M576.3,653.2C576.3,653.2,576.3,653.2,576.3,653.2c1.6,0,3.2,0,4.8,0c2.1,0,2.1,0,2.7-2.1
		c2.6-9.1,5.2-18.1,7.8-27.2c0.3-1.2,0.5-2.7,2.2-2.7c1.5,0,1.8,1.3,2.3,2.4c2.6,6,5.2,12,7.9,18c3.1,7,6.1,14.1,9.2,21.1
		c0.8,1.8,0.4,1.9,2.8,1.6c3.3-0.4,6.7-0.7,10-1.1c1.6-0.2,1.6-0.3,1-1.8c-2.1-4.8-4.1-9.5-6.2-14.3c-4.4-10.2-8.8-20.4-13.2-30.6
		c-2.6-5.9-8.3-9.6-14.6-9.3c-6.5,0.4-12,5.1-13.5,11c-2.8,10.5-5.9,20.9-8.9,31.4c-0.2,0.8-0.4,1.5-0.6,2.3c-0.2,0.8,0,1.2,0.9,1.2
		C572.6,653.1,574.5,653.2,576.3,653.2z"/>
	<path fill="#CCD6DA" d="M557,703.4c29.2,0,58.4,0,87.6,0c0.7,0,1.4,0,2.2,0c0.7,0,1-0.4,0.7-1.1c-0.6-1.3-1.2-2.6-1.8-3.9
		c-0.3-0.8-0.9-1.1-1.7-1c-0.5,0-1,0-1.4,0c-57.8,0-115.5,0-173.3,0c-0.5,0-1,0-1.4,0c-1-0.1-1.5,0.3-1.4,1.3c0,0.9,0,1.8,0,2.6
		c-0.1,2-0.1,2,2,2.1c0.5,0,1,0,1.4,0C498.9,703.4,527.9,703.4,557,703.4z"/>
	<path fill="#FAE0D6" d="M742,406c0.4,0,0.7,0,1,0c1.6,0.1,3.2,0.2,4.8,0.2c1.4,0,2.3-1,2.5-2.2c0.1-1.2-0.7-2.2-2-2.5
		c-0.5-0.1-1.1-0.2-1.7-0.2c-3.5-0.2-7-0.3-10.5-0.5c-0.8,0-1.4,0.1-1.8,0.8c-2.5,4.5-3.9,9.1-2,14.2c0.4,1,0.3,1.8-0.2,2.7
		c-0.7,1.3-1.3,2.7-2.1,4.1c-0.5,0.9-0.5,1.4,0.5,1.9c4.4,2.1,8.8,4.3,13.1,6.5c0.9,0.5,1.3,0.2,1.7-0.6c0.6-1.4,1.4-2.7,2-4.1
		c0.4-0.9,1-1.5,2-1.8c4.4-1.3,7.3-4.3,9.3-8.4c3.3-6.8,6.7-13.6,10.1-20.4c0.2-0.5,0.5-1,0.7-1.5c0.3-1.2-0.2-2.2-1.3-2.8
		c-1.1-0.6-2-0.2-2.8,0.7c-0.4,0.5-0.7,1.1-1,1.6c-3.3,6.6-6.7,13.1-9.8,19.8c-1.8,3.9-7.3,5-9.8,0.8c-0.5-0.8-1-0.9-1.9-0.9
		c-2.7,0.2-4.6-1-5.6-3.6c-0.2-0.5-0.4-1-1-1.2c-1-0.2-1.7-0.8-1.4-1.8c0.3-1.2,1.3-1.2,2.3-1.2C738.9,405.8,740.5,405.9,742,406z"
		/>
	<path fill="#FFFFFF" d="M619.5,691.3c6.5,0,11.7-5,11.7-11.4c0.1-6.6-5.1-11.8-11.6-11.8c-6.4,0-11.6,5.1-11.6,11.6
		C608,686,613.1,691.2,619.5,691.3z"/>
	<path fill="#FAE0D6" d="M508.3,571.2c-1.3-0.1-2.7,0.3-4.1,0.6c-0.5,0.1-1.3,0.4-1.3,0.5c0,0.6,0.8,0.7,1.2,0.9
		c0.9,0.4,1.7,0.8,2.6,1.3c0.9,0.5,1.7,0.5,2.7,0.1c4-1.5,7.6,0.6,8,4.8c0.1,1.2,0.6,1.8,1.5,2.5c2.7,1.9,5.4,4,8.1,6
		c1.4,1,2.5,2.9,4.2,2.9c1.7,0,3.4-0.9,5-1.4c1.6-0.5,1.6-0.6,1.3-2.2c-0.7-3.2-1.6-6.4-2.3-9.6c-0.3-1.2-0.9-1.8-2-1.9
		c-2.4-0.4-4.9-0.9-7.3-1.3c-1.7-0.3-2.9-0.9-4-2.3c-2.8-3.3-5.7-6.5-8.6-9.7c-1.2-1.3-2.8-1.3-3.8-0.2c-1,1.1-0.8,2.3,0.5,3.6
		c1,0.9,2.1,1.8,3.1,2.7c0.7,0.7,1.8,1.3,1.2,2.5c-0.7,1.2-1.8,0.7-2.8,0.6C510.5,571.4,509.5,571.2,508.3,571.2z"/>
	<path fill="#FFFFFF" d="M540.9,619.4c1.4,0,2-0.8,1.6-2.3c-0.5-1.9-1.6-3.5-2.8-5c-4-5-8.8-9.3-13.6-13.5c-0.8-0.7-1.3-0.5-1.9,0.3
		c-0.6,0.9-1.3,1.8-2.1,2.6c-3,3.4-6.7,3.3-9.3-0.4c-0.4-0.5-0.8-0.8-1.4-0.8c-0.3,0-0.8-0.1-0.9,0c-0.2,0.3,0.2,0.5,0.5,0.7
		c4.1,3.4,8.4,6.7,12.8,9.8c3.9,2.7,8,5.3,12.4,7.2C537.5,618.7,539,619.3,540.9,619.4z"/>
	<path fill="#E5384A" d="M575.5,656.1C575.5,656.1,575.5,656.1,575.5,656.1c-1.8,0-3.5,0.1-5.3,0c-1.3-0.1-2.1,0.3-2.9,1.5
		c-4.2,6.9-10.2,11.5-18.2,13.4c-1.1,0.3-2.2,0.5-3.3,0.8c-0.2,0.1-0.4,0.2-0.6,0.3c0.2,0,0.5,0.1,0.7,0.1c2.4-0.3,4.8-0.6,7.1-0.8
		c4.6-0.5,9.2-1,13.8-1.5c0.9-0.1,1.6-0.3,1-1.5c-0.1-0.2-0.2-0.5-0.2-0.7c-0.4-2.1,0.1-3.8,1.8-5.1c1.6-1.2,3.3-1.5,5.2-0.6
		c1.9,0.9,2.9,2.4,2.9,4.6c0.1,2.2,0.1,2.2,2.2,1.9c0.6-0.1,1.3-0.2,1.9-0.3c0.8-0.1,1.1-0.5,1.1-1.2c0-3.2,0-6.4,0-9.6
		c0-0.9-0.4-1.3-1.3-1.3C579.5,656.1,577.5,656.1,575.5,656.1z"/>
	<path fill="#CCD6DA" d="M756.4,703.4c4.1,0,8.1,0,12.2,0c1.9,0,1.9,0,1.9-1.8c0-0.2,0-0.5,0-0.7c-0.1-1.4,0.6-3.2-0.3-4.2
		c-1-1.1-2.9-0.4-4.3-0.4c-6.1-0.1-12.3,0-18.4,0c-2.7,0-2.2,0-3.1,2.1c-0.4,1-0.9,2.1-1.3,3.1c-0.9,2-0.9,2,1.4,2
		C748.5,703.4,752.4,703.4,756.4,703.4z"/>
	<path fill="#FFFFFF" d="M585.8,660.3c0,2.4,0,4.1,0,5.8c0,1.6,0.1,1.7,1.6,1.5c2.9-0.3,5.7-0.6,8.6-1c1.4-0.2,1.5-0.4,1-1.7
		c-2.5-6-5.1-11.9-7.7-17.8c-0.1-0.3-0.1-0.9-0.7-0.7c-0.3,0.1-0.4,0.5-0.5,0.8C586.8,651.7,585,656.1,585.8,660.3z"/>
	<path fill="#CCD6DA" d="M781.2,703.6c2.2,0,4.3,0,6.5,0c1,0,1.5-0.3,1.4-1.4c0-1.5,0-3,0-4.5c0-1-0.4-1.4-1.4-1.4
		c-4.2,0-8.5,0-12.7,0c-1,0-1.5,0.4-1.4,1.4c0,1.5,0,3,0,4.5c0,1,0.4,1.4,1.4,1.4C777.1,703.5,779.2,703.6,781.2,703.6z"/>
	<path fill="#E5384A" d="M559,656.1C559,656.1,559,656.1,559,656.1c-1.4,0-2.9,0.1-4.3,0c-1.2-0.1-1.9,0.3-2.5,1.4
		c-2.1,3.8-5.2,6.8-8.7,9.4c-0.5,0.3-1,0.6-1.4,0.9c-0.5,0.5-0.3,0.9,0.2,1.1c0.4,0.2,0.9,0.2,1.4,0.2c2.5-0.3,5-0.8,7.4-1.7
		c0.7-0.2,1-0.6,1.2-1.3c1-3.7,2.8-4.8,6.4-4.2c0.8,0.1,1.4,0.1,2-0.5c1.2-1.3,2.4-2.6,3.4-4c0.5-0.7,0.5-1.2-0.6-1.1
		C562,656.1,560.5,656.1,559,656.1z"/>
	<path fill="#FAE0D6" d="M503.9,586.6c0.2,0,0.7,0,1-0.1c3.2-1.1,6-2.9,8.7-4.8c1.1-0.8,1.1-2.1,0.4-3.2c-0.7-1.2-2-1.6-3.3-1.1
		c-0.6,0.2-1.1,0.6-1.7,0.9c-2,1.1-4,2.3-6,3.4c-1.4,0.8-2.1,0.6-2.6-0.8c-0.4-1.1-1.1-1.2-1.9-1.5c-0.8-0.3-1.1,0.1-1.2,0.9
		C497.2,583.6,500.2,586.6,503.9,586.6z"/>
	<path fill="#FAE0D6" d="M738.8,398c2.5,0.2,2.6,0.2,3.6-2c1.7-3.5,3.5-7,5.2-10.5c0.3-0.6,0.7-1.3,0.8-2c0.2-1.1-0.2-2-1.3-2.6
		c-1.1-0.6-2-0.2-2.8,0.6c-0.4,0.5-0.7,1.1-1,1.6c-2,4.1-4,8.1-6.1,12.2C736.2,397.8,736.2,397.8,738.8,398z"/>
	<path fill="#FFFFFF" d="M517.5,668.1c-4.5,0-8.6,3-9.9,7.1c-0.2,0.7-0.5,1.5,0.8,1.4c3.5-0.4,7-0.8,10.5-1.2c0.6-0.1,0.9-0.4,1.1-1
		c0.5-1.5,1.2-2.8,2.1-4c0.6-0.8,0.2-1.1-0.5-1.4C520.3,668.4,518.9,668,517.5,668.1z"/>
	<path fill="#FFFFFF" d="M524.2,674.8c5.5-0.6,10.8-1.3,16.1-1.9c1.3-0.1,0.7-0.8,0.3-1.2c-4.2-5.5-14-4.4-17,1.9
		C523.2,674.7,523.2,674.8,524.2,674.8z"/>
	<path fill="#FAE0D6" d="M753.3,403.8c0,1.1-0.3,2.2-0.9,3.2c-0.9,1.2-2.1,1.9-3.5,2.3c-1.4,0.4-2.1,1.9-1.5,3.2
		c0.6,1.3,1.9,1.9,3.2,1.4c0.6-0.2,1-0.7,1.3-1.3c1.7-3.3,3.3-6.7,5-10.1c0.2-0.3,0.3-0.7,0.3-1.1c0-1.1-0.5-1.8-1.4-2.3
		c-0.9-0.4-1.7-0.3-2.5,0.4c-0.8,0.7-0.8,1.5-0.3,2.3C753.2,402.4,753.3,403.1,753.3,403.8z"/>
	<path fill="#FAE0D6" d="M516.3,586.6c0-1.7-0.9-2.2-2.4-1.4c-2.9,1.5-5.4,3.7-8.8,4.3c-0.7,0.1-0.7,0.8-0.6,1.4
		c0.4,1.7,2.2,2.6,4,1.8c2.2-1.1,4.3-2.4,6.4-3.7C515.9,588.5,516.3,587.6,516.3,586.6z"/>
	<path fill="#FAE0D6" d="M519.5,591.1c0-0.2,0-0.7-0.5-1.1c-0.3-0.3-0.6-0.1-0.8,0.1c-2,2.1-4.7,3-7,4.5c-0.5,0.3-1.4,0.4-1.2,1.3
		c0.1,0.7,0.8,1.1,1.5,1.4c0.6,0.2,1.3,0.2,1.9-0.1c2.1-0.9,3.8-2.3,5.4-3.9C519.3,592.8,519.5,592.1,519.5,591.1z"/>
	<path fill="#FAE0D6" d="M522.2,593.8c-0.1,0.1-0.3,0.2-0.4,0.4c-0.9,1.5-2.2,2.5-3.6,3.5c-0.7,0.5-1.4,1-2.1,1.5
		c-0.7,0.6-0.6,1.2,0.3,1.5c0.5,0.2,0.9,0.1,1.4,0c1.7-0.4,5-4.6,4.9-6.4c0-0.2-0.1-0.3-0.1-0.5
		C522.6,593.9,522.5,593.8,522.2,593.8z"/>
	<path fill="#151D38" d="M574.6,666.7c0-1.1-0.8-2-1.9-2c-1.1,0-2,0.8-2,1.9c0,1.1,0.8,2,1.9,2.1
		C573.7,668.6,574.6,667.7,574.6,666.7z"/>
	<path fill="#FAE0D6" d="M748.7,398.5c1.2,0.3,1.4-0.3,1.3-1.1c-0.1-0.9-0.7-1.6-1.6-1.9c-1-0.3-1.9-0.1-2.5,0.7
		c-0.4,0.5-1,1.2-0.7,1.9c0.3,0.5,1,0.2,1.5,0.2C747.4,398.4,748.2,398.4,748.7,398.5z"/>
	<path fill="#FAE0D6" d="M741.8,409c-0.1,0-1-0.4-1,0.2c-0.1,0.8,0.7,1.1,1.5,1.2c0.3,0,0.6,0,0.9,0c0.5-0.1,1.1-0.3,1.1-0.8
		c0-0.7-0.6-0.5-1.1-0.6C742.8,409,742.5,409,741.8,409z"/>
	<path fill="#151D38" d="M207.4,479.9c2.2-1.2,3.6-3.3,5.3-5.1c11-11.4,22-22.8,32.9-34.2c13.7-14.2,27.4-28.5,41-42.7
		c2.8-2.9,5.6-5.8,8.4-8.6c1.4-1.5,1.9-1.5,3.3-0.1c4.9,4.6,9.7,9.3,14.5,13.9c10.3,9.9,20.5,19.7,30.8,29.6c10,9.6,20,19.3,30,29
		c11.1,10.7,22.3,21.4,33.4,32.1c10.3,9.9,20.5,19.8,30.7,29.6c1.3,1.3,1.5,2.1,0.9,2.8c-0.7,0.8-1.7,0.6-3.1-0.7
		c-7.7-7.4-15.4-14.9-23.1-22.3c-10.2-9.8-20.4-19.6-30.6-29.4c-5.8-5.5-11.5-11.1-17.3-16.6c-0.2-0.2-0.4-0.5-0.7-0.7
		c-2.2-2.1-2.2-2.1-4.3,0c-16.2,16.8-32.4,33.6-48.6,50.5c-11.3,11.8-22.6,23.5-33.9,35.2c-2.7,2.8-2.5,3.6-6.1,0.1
		c-16.3-15.8-32.7-31.5-49.1-47.2c-4.4-4.2-8.8-8.4-13.1-12.6c-0.5-0.4-0.8-1-1.5-1.1C207.4,480.9,207.4,480.4,207.4,479.9z"/>
	<path fill="#FFFFFF" d="M359.4,452.4c-0.1-0.4-0.4-0.7-0.6-1c-3-2.9-6-5.7-9-8.6c-0.8-0.8-1.3-0.5-1.9,0.1
		c-1.5,1.6-3.1,3.2-4.7,4.8c-1.3,1.4-2.6,2.8-4,4.2c-0.4,0.4-0.7,0.8-0.1,1.4c3.2,3,6.3,6.1,9.5,9.1c0.6,0.5,1,0.3,1.4-0.1
		c3-3.1,6-6.2,9-9.3C359.1,452.8,359.2,452.6,359.4,452.4z"/>
	<path fill="#FFFFFF" d="M323.5,442.7c-0.4,0-0.7,0.2-0.9,0.4c-2.9,3-5.9,6.1-8.8,9.1c-0.7,0.7-0.7,1.2,0,2c3,2.8,6,5.7,9,8.6
		c0.7,0.7,1.2,0.6,1.8-0.1c2.9-3.1,5.8-6.1,8.8-9.1c0.6-0.6,0.5-1-0.1-1.5c-3.1-2.9-6.1-5.9-9.1-8.8
		C324,443,323.7,442.8,323.5,442.7z"/>
	<path fill="#FFFFFF" d="M298.4,468.6c-0.3,0.2-0.5,0.3-0.6,0.5c-3,3.1-6,6.2-9,9.3c-0.6,0.6-0.6,1,0,1.6c3.1,2.9,6.1,5.9,9.2,8.8
		c0.6,0.5,1,0.6,1.6,0c3-3.1,6-6.2,9-9.3c0.5-0.5,0.5-0.9,0-1.4c-3.1-3-6.2-6-9.3-9C298.9,468.9,298.6,468.8,298.4,468.6z"/>
	<path fill="#FFFFFF" d="M324.3,488.9c0.2-0.1,0.4-0.2,0.6-0.4c3-3.1,6-6.2,9-9.3c0.7-0.7,0.5-1.2-0.1-1.8c-3-2.9-6-5.7-9-8.6
		c-0.7-0.7-1.1-0.6-1.7,0c-2.9,3.1-5.9,6.1-8.8,9.2c-0.4,0.5-0.6,0.8-0.1,1.4c3.2,3,6.4,6.1,9.5,9.1
		C323.8,488.6,324,488.7,324.3,488.9z"/>
	<path fill="#FFFFFF" d="M307.3,402.1c-0.1-0.2-0.3-0.4-0.5-0.6c-3-2.9-6.1-5.9-9.1-8.8c-0.6-0.6-1.1-0.4-1.6,0.1
		c-2.9,3.1-5.9,6.1-8.8,9.1c-0.6,0.6-0.6,1,0,1.6c3.1,3,6.2,6,9.3,8.9c0.5,0.5,0.9,0.4,1.4-0.1c2.9-3.1,5.9-6.1,8.8-9.1
		C307,402.9,307.4,402.7,307.3,402.1z"/>
	<path fill="#FFFFFF" d="M273.5,494.6c-0.5,0-0.8,0.3-1,0.6c-2.9,3.1-5.9,6.1-8.8,9.2c-0.6,0.6-0.5,1,0.1,1.6
		c3.1,2.9,6.1,5.9,9.2,8.8c0.6,0.6,1,0.6,1.6,0c2.9-3.1,5.8-6.1,8.8-9.2c0.7-0.7,0.6-1.2-0.1-1.8c-3-2.9-6-5.8-9-8.6
		C274,495,273.7,494.8,273.5,494.6z"/>
	<path fill="#FFFFFF" d="M309.3,504.3c-0.1-0.4-0.4-0.7-0.7-0.9c-3-2.9-6-5.7-9-8.7c-0.7-0.7-1.2-0.6-1.7,0.1c-2.9,3-5.7,6-8.6,9
		c-0.7,0.7-0.7,1.1,0,1.7c3,2.9,6,5.7,9,8.6c0.7,0.7,1.2,0.7,1.9,0c2.8-3,5.6-5.9,8.5-8.8C308.9,505,309.3,504.7,309.3,504.3z"/>
	<path fill="#FFFFFF" d="M271.7,418.2c-0.1,0.1-0.4,0.2-0.5,0.4c-3.1,3.2-6.1,6.3-9.2,9.5c-0.6,0.6-0.3,1,0.2,1.4
		c3.1,2.9,6.1,5.9,9.2,8.8c0.7,0.7,1.2,0.5,1.8-0.1c2.8-3,5.6-5.9,8.5-8.8c0.7-0.7,0.9-1.2,0.1-2c-3.1-2.9-6.1-5.9-9.2-8.8
		C272.4,418.4,272.2,418.1,271.7,418.2z"/>
	<path fill="#FFFFFF" d="M283.3,479.5c0-0.7-0.4-0.9-0.8-1.2c-2.2-2.2-4.5-4.4-6.7-6.5c-1-0.9-1.8-2.5-3-2.5c-1.2,0-1.8,1.6-2.7,2.5
		c-2.3,2.3-4.5,4.6-6.7,6.9c-0.4,0.4-1.1,0.8-0.3,1.5c3.1,3,6.2,6,9.3,9c0.6,0.6,1.2,0.6,1.8-0.1c2.9-3,5.7-6,8.6-9
		C283,479.9,283.2,479.7,283.3,479.5z"/>
	<path fill="#FFFFFF" d="M307.8,427.6c-0.2-0.2-0.5-0.5-0.7-0.8c-1.9-1.8-3.8-3.7-5.7-5.5c-1.1-1.1-2.2-2.1-3.3-3.2
		c-0.5-0.5-0.9-0.7-1.6,0c-2.8,3-5.8,6-8.7,8.9c-0.6,0.7-0.9,1.2-0.1,2c3,2.8,6,5.7,9,8.6c0.7,0.7,1.2,0.6,1.8,0
		c2.9-3.1,5.9-6.1,8.8-9.2C307.6,428.3,307.9,428.1,307.8,427.6z"/>
	<path fill="#FFFFFF" d="M257.4,454.4c-0.1-0.2-0.2-0.5-0.4-0.6c-3.2-3.1-6.4-6.2-9.7-9.3c-0.5-0.5-0.9-0.2-1.2,0.2
		c-3,3.1-6,6.2-9,9.3c-0.6,0.6-0.5,1,0.1,1.6c3,2.9,6,5.7,9,8.7c0.7,0.7,1.3,0.7,2,0c2.9-3,5.8-6,8.6-9
		C257.1,454.9,257.2,454.6,257.4,454.4z"/>
	<path fill="#FFFFFF" d="M322.7,417.2c-0.2,0.1-0.4,0.2-0.5,0.4c-3,3.2-6.1,6.3-9.1,9.5c-0.5,0.6-0.3,0.9,0.1,1.4
		c3.1,2.9,6.1,5.9,9.2,8.8c0.5,0.5,1,0.7,1.6,0c2.9-3.1,5.9-6.1,8.8-9.1c0.7-0.7,0.6-1.2,0-1.8c-3.1-2.9-6.1-5.9-9.2-8.8
		C323.4,417.4,323.1,417.2,322.7,417.2z"/>
	<path fill="#FFFFFF" d="M248,495.2c-0.5,0-0.7,0.3-0.9,0.5c-2.9,3-5.9,6.1-8.8,9.1c-0.7,0.7-0.5,1.2,0.1,1.8
		c2.9,2.8,5.9,5.6,8.8,8.5c0.8,0.8,1.3,0.9,2.1,0c2.8-3,5.6-5.9,8.4-8.8c0.6-0.6,0.8-1.1,0.1-1.8c-3.1-2.9-6.1-5.9-9.2-8.8
		C248.4,495.5,248.1,495.3,248,495.2z"/>
	<path fill="#FFFFFF" d="M308.3,453.1c-0.2-0.2-0.4-0.6-0.7-0.8c-3-2.9-6-5.7-9-8.6c-0.6-0.6-1-0.5-1.6,0c-3,3.1-6,6.2-9,9.3
		c-0.5,0.5-0.4,0.9,0.1,1.4c3.1,2.9,6.1,5.9,9.2,8.8c0.6,0.6,1.1,0.7,1.8,0c2.8-3,5.8-6,8.6-9C308,453.9,308.3,453.7,308.3,453.1z"
		/>
	<path fill="#FFFFFF" d="M272.4,464.1c0.6,0.2,0.8,0,0.9-0.2c3.1-3.2,6.2-6.4,9.3-9.6c0.5-0.5,0.2-0.8-0.2-1.2c-3.1-3-6.2-6-9.3-9
		c-0.6-0.6-1.1-0.4-1.6,0.1c-2.9,3-5.8,6.1-8.8,9.1c-0.5,0.6-0.6,1,0,1.6c3.1,2.9,6.1,5.8,9.1,8.8
		C272.1,463.9,272.4,464.1,272.4,464.1z"/>
	<path fill="#FFFFFF" d="M274.2,540.9c0.3-0.2,0.6-0.4,0.8-0.6c3-3.1,6-6.2,8.9-9.3c0.5-0.5,0.4-1-0.1-1.4c-3-2.9-6.1-5.9-9.1-8.8
		c-0.6-0.6-1.1-0.7-1.8,0c-2.8,3-5.7,6-8.6,9c-0.6,0.7-0.7,1.1,0,1.8c3.1,2.9,6.1,5.9,9.1,8.8C273.7,540.5,273.9,540.6,274.2,540.9z
		"/>
	<path fill="#FFFFFF" d="M247.2,469.7c-0.2,0.1-0.4,0.3-0.7,0.5c-3,3.1-6,6.2-9,9.3c-0.6,0.6-0.3,1,0.2,1.4c3.1,3,6.2,6,9.3,9
		c0.4,0.4,0.7,0.6,1.2,0.1c3.1-3.2,6.2-6.4,9.3-9.7c0.6-0.6,0.2-1-0.3-1.4c-3-2.9-6-5.8-8.9-8.7C248.1,470,247.8,469.7,247.2,469.7z
		"/>
	<path fill="#FFFFFF" d="M221.9,470.1c-0.2,0.1-0.5,0.2-0.6,0.4c-3.1,3.2-6.1,6.3-9.2,9.5c-0.6,0.6-0.4,1,0.2,1.6
		c3,2.8,5.9,5.6,8.8,8.5c1,1,1.5,0.7,2.3-0.2c2.7-2.9,5.5-5.8,8.3-8.6c0.7-0.8,0.7-1.2,0-1.9c-3-2.8-6-5.7-9-8.6
		C222.5,470.5,222.2,470.3,221.9,470.1z"/>
	<path fill="#151D38" d="M860.2,731.9c0-0.4-0.3-0.7-0.4-1.1c-0.3-1.3,0.1-2,1.5-2.1c0.6-0.1,1.1,0,1.7,0c53.9,0,107.8,0,161.7,0
		c0.2,0,0.3,0,0.5,0c2.9,0,3.3,0.6,2.1,3.3C971.6,731.9,915.9,731.9,860.2,731.9z"/>
	<path fill="#E5384A" d="M597.2,183.3c0.1,2.5,1,4.8,1.6,7.2c0.9,3.6,0.9,3.6-2.5,4.5c-5.5,1.5-10.9,2.9-16.4,4.3
		c-2.1,0.6-2.1,0.5-2.7-1.6c-0.6-2.2-1.1-4.3-1.7-6.5c-0.5-2-0.5-2.1,1.5-2.6c5.5-1.5,11.1-2.9,16.6-4.4c0.9-0.2,1.9-0.2,2.7-0.9
		C596.6,183.3,596.9,183.3,597.2,183.3z"/>
	<path fill="#ACDCF6" d="M433.9,322.2c0.6,0,0.7,0.4,0.9,0.7c2.3,4,4.6,8.1,6.9,12c0.6,1,0.2,1.4-0.6,1.9c-3.1,1.7-6.1,3.5-9.1,5.3
		c-6.3,3.6-12.6,7.3-18.9,10.9c-1.7,1-1.7,1-2.7-0.7c-2.2-3.7-4.3-7.5-6.4-11.2c-0.6-0.9-0.5-1.4,0.5-2c9.5-5.4,18.9-10.9,28.4-16.4
		C433.3,322.5,433.7,322.4,433.9,322.2z"/>
	<path fill="#E5384A" d="M971.9,563.8c-0.6,0-0.8-0.4-1-0.7c-2.3-4.1-4.7-8.2-7-12.3c-0.4-0.7-0.3-1.1,0.4-1.5
		c1.8-1,3.6-2.1,5.4-3.1c7.6-4.4,15.2-8.8,22.8-13.2c1.8-1,1.8-1,2.8,0.8c2.1,3.6,4.1,7.2,6.2,10.8c0.9,1.5,0.9,1.6-0.5,2.4
		c-9.4,5.4-18.8,10.9-28.2,16.3C972.5,563.5,972.1,563.7,971.9,563.8z"/>
	<path fill="#ACDCF6" d="M365.3,622.4c0,0.6-0.4,0.8-0.6,1.1c-3.4,3.1-6.8,6.3-10.2,9.4c-0.7,0.7-1.2,0.5-1.7-0.2
		c-2.1-2.4-4.3-4.7-6.4-7.1c-5.2-5.7-10.4-11.4-15.6-17.2c-1.2-1.3-1.2-1.3,0.1-2.5c3.1-2.9,6.2-5.8,9.3-8.6c1.3-1.2,1.4-1.2,2.4,0
		c7.4,8.1,14.7,16.2,22.1,24.2C364.9,621.9,365.1,622.2,365.3,622.4z"/>
	<path fill="#EBBE62" d="M688.3,263.4c0.4-2.4,0.8-5.1,1.3-7.7c0.3-1.2,0-2.1-0.9-3c-2-1.8-3.9-3.8-5.8-5.7c-1-1-0.8-1.4,0.6-1.6
		c2.5-0.4,5-0.9,7.6-1.1c1.6-0.1,2.4-0.8,3-2.2c1-2.3,2.1-4.5,3.3-6.7c0.2-0.5,0.3-1.2,1-1.1c0.6,0,0.6,0.7,0.8,1.1
		c1.2,2.4,2.4,4.7,3.5,7.1c0.5,1.1,1.2,1.7,2.5,1.8c2.5,0.2,4.9,0.6,7.3,1c0.6,0.1,1.4,0,1.6,0.7c0.2,0.7-0.6,1.1-1,1.5
		c-1.7,1.7-3.4,3.4-5.2,5c-1.1,1-1.4,1.9-1.1,3.3c0.5,2.3,0.8,4.7,1.2,7.1c0.1,0.6,0.6,1.4,0,1.8c-0.7,0.5-1.3-0.3-1.9-0.6
		c-2.1-1-4.2-2.1-6.1-3.2c-1.3-0.8-2.4-0.8-3.7,0c-2.2,1.3-4.5,2.4-6.8,3.6C688.5,265.1,688.2,264.9,688.3,263.4z"/>
	<path fill="#ACDCF6" d="M782.9,290c-0.4,0.6-0.6,1-0.9,1.3c-4.2,5.2-8.5,10.4-12.7,15.6c-0.6,0.7-1,0.9-1.8,0.2
		c-2.3-1.9-4.6-3.8-6.9-5.6c-0.7-0.5-0.6-0.9-0.1-1.6c4.3-5.3,8.6-10.5,12.8-15.8c0.5-0.6,0.9-0.9,1.7-0.3c2.2,1.9,4.4,3.7,6.7,5.5
		C782.2,289.6,782.6,289.8,782.9,290z"/>
	<path fill="#E5384A" d="M978.7,381.4c-0.2,0.3-0.4,0.6-0.7,0.9c-4.2,5.1-8.4,10.3-12.5,15.4c-0.8,1-1.3,0.8-2.1,0.2
		c-2.1-1.8-4.2-3.5-6.3-5.2c-0.9-0.7-1-1.2-0.2-2.1c4.2-5.1,8.4-10.3,12.6-15.4c0.5-0.6,0.9-1.2,1.7-0.4c2.3,2,4.7,3.9,7,5.8
		C978.4,380.8,978.6,381,978.7,381.4z"/>
	<path fill="#E5384A" d="M445.5,603.3c0.2,0.8-0.3,1-0.9,1.1c-1.9,0.5-3.7,1-5.5,1.5c-4.5,1.2-9.1,2.4-13.6,3.6
		c-1.6,0.4-1.6,0.4-2.1-1.3c-0.7-2.5-1.3-5.1-2-7.6c-0.3-1.2,0.1-1.5,1.1-1.8c6.3-1.6,12.7-3.3,19-5c1.2-0.3,1.7,0,2,1.2
		C444,597.7,444.8,600.5,445.5,603.3z"/>
	<path fill="#ACDCF6" d="M906.1,532.3c0.5-0.1,0.7,0.3,0.9,0.8c0.8,2.9,1.5,5.9,2.3,8.8c0.3,1.1-0.5,1.2-1.2,1.3
		c-2.9,0.8-5.7,1.5-8.6,2.3c-3.5,0.9-7,1.7-10.4,2.8c-1.3,0.4-1.7,0-2-1.2c-0.6-2.6-1.3-5.3-2-7.9c-0.2-0.8-0.3-1.4,0.7-1.6
		c6.6-1.7,13.1-3.5,19.7-5.2C905.6,532.3,905.8,532.3,906.1,532.3z"/>
	<path fill="#EBBE62" d="M437.9,265.2c0.3-1.6,0.5-3,0.8-4.4c0.3-1.2,0.1-2.1-1-2.9c-1.1-0.8-2-1.9-2.9-2.9
		c-0.3-0.3-0.9-0.6-0.6-1.2c0.2-0.5,0.8-0.4,1.3-0.5c1.3-0.2,2.5-0.4,3.8-0.5c1.2-0.1,2-0.6,2.5-1.8c0.6-1.4,1.3-2.7,2-4.1
		c0.4-0.8,0.9-0.8,1.3,0c0.7,1.4,1.4,2.7,2,4.1c0.5,1.2,1.3,1.7,2.6,1.8c1.4,0.1,2.7,0.3,4,0.5c1.3,0.2,1.4,0.6,0.6,1.5
		c-1,1-2,2.1-3.1,3c-0.9,0.8-1.2,1.6-0.9,2.7c0.3,1.3,0.5,2.7,0.7,4c0.1,0.5,0.3,1-0.1,1.4c-0.5,0.5-1-0.1-1.5-0.3
		c-1.2-0.6-2.5-1.2-3.6-1.9c-0.9-0.6-1.7-0.6-2.7,0c-1.3,0.8-2.7,1.4-4,2.1C438.1,266.4,437.9,266.2,437.9,265.2z"/>
	<path fill="#EBBE62" d="M825,557c0,0.8-0.5,0.9-1.1,0.6c-1.4-0.7-2.9-1.4-4.2-2.2c-0.9-0.5-1.7-0.5-2.7,0c-1.3,0.8-2.6,1.5-4,2.1
		c-1,0.5-1.3,0.2-1.2-0.9c0.2-1.4,0.4-2.8,0.8-4.2c0.3-1.1,0.1-1.9-0.8-2.7c-1.2-1-2.3-2.2-3.4-3.4c-0.5-0.5-0.5-1,0.4-1.1
		c1.6-0.3,3.3-0.6,5-0.8c1-0.1,1.6-0.6,1.9-1.5c0.6-1.4,1.3-2.8,2-4.1c0.6-1.1,1-1.1,1.6,0.1c0.6,1,1.2,2.1,1.5,3.2
		c0.6,1.7,1.7,2.3,3.4,2.5c1.3,0.1,2.5,0.4,3.8,0.5c0.9,0.1,1.1,0.6,0.4,1.3c-1.2,1.2-2.3,2.4-3.6,3.5c-0.6,0.5-0.8,1.1-0.6,1.9
		C824.4,553.5,824.7,555.2,825,557z"/>
	<path fill="#EBBE62" d="M887,255.3c0-0.4,0-0.8,0.2-1.2c0.5-1.3-0.1-2.3-1.1-3.1c-0.6-0.5-1.6-0.9-1.3-1.8c0.3-0.9,1.4-0.5,2.1-0.6
		c1.3-0.2,2.2-0.7,2.7-2c0.1-0.4,0.4-0.9,0.7-1.3c0.6-0.9,0.9-0.9,1.5,0.1c0.2,0.3,0.3,0.6,0.4,0.9c0.5,1.6,1.6,2.3,3.2,2.3
		c0.4,0,0.8,0.1,1.2,0.1c0.7,0.2,0.9,0.6,0.5,1.2c-0.1,0.1-0.2,0.3-0.3,0.3c-2.1,1.3-2.3,3.2-1.7,5.4c0.3,1-0.1,1.2-1.2,0.8
		c-0.4-0.2-0.7-0.3-1.1-0.6c-1.2-0.9-2.3-0.9-3.5-0.1c-0.3,0.2-0.6,0.3-0.8,0.4c-0.4,0.2-0.8,0.7-1.3,0.4
		C886.6,256.3,886.9,255.7,887,255.3z"/>
	<path fill="#EBBE62" d="M520.3,469.2c0-0.2,0-0.3,0.1-0.5c0.7-2,0.1-3.5-1.6-4.7c-0.4-0.3-0.8-0.6-0.7-1.2c0.2-0.5,0.7-0.5,1.2-0.6
		c0.4-0.1,0.8-0.1,1.2-0.1c1.2,0,2-0.5,2.3-1.7c0.1-0.4,0.3-0.7,0.5-1.1c0.2-0.4,0.3-1,0.9-1.1c0.7-0.1,0.9,0.6,1.1,1.1
		c0.6,2,2,3,4.1,2.8c0.5,0,1,0.1,1.2,0.6c0.2,0.5-0.3,0.9-0.7,1.2c-2,1.2-2,3-1.5,5c0.3,1.2-0.1,1.5-1.2,1c-0.3-0.1-0.6-0.2-0.9-0.4
		c-1.3-1-2.6-1-3.9,0c-0.3,0.2-0.6,0.3-0.8,0.4C520.5,470.5,520.2,470.3,520.3,469.2z"/>
	<path fill="#EBBE62" d="M295.4,337.7c0-0.2,0.1-0.4,0.2-0.7c0.5-1.7,0.4-3.1-1.3-4.2c-0.3-0.2-0.6-0.5-0.8-0.8
		c-0.5-0.6-0.3-1,0.4-1.2c0.2-0.1,0.5-0.1,0.7-0.1c2.1,0.2,3.3-0.9,3.9-2.8c0.1-0.3,0.3-0.6,0.4-0.8c0.4-0.5,0.8-0.5,1.1,0
		c0.1,0.1,0.2,0.3,0.2,0.4c0.7,2.3,2.2,3.3,4.6,3.3c1,0,1.1,0.6,0.5,1.4c-0.1,0.1-0.2,0.3-0.3,0.3c-1.8,1.2-2.2,2.7-1.5,4.7
		c0.1,0.4,0.3,1-0.1,1.4c-0.4,0.4-1,0-1.3-0.3c-1.8-1.4-3.4-1.1-5.2,0C295.7,339.1,295.3,338.8,295.4,337.7z"/>
	<path fill="#EBBE62" d="M966.8,458.5c0-0.2,0-0.3,0.1-0.5c0.8-1.9,0.1-3.4-1.5-4.5c-0.3-0.2-0.5-0.4-0.7-0.7
		c-0.4-0.6-0.2-0.9,0.4-1c0.2-0.1,0.5-0.1,0.7-0.1c2.1,0,3.5-0.9,4.1-2.9c0.1-0.5,0.3-1.2,1-1.1c0.5,0.1,0.7,0.7,0.8,1.1
		c0.6,2.2,2.2,3,4.3,3c0.4,0,0.8,0,1,0.5c0.2,0.6-0.2,0.9-0.6,1.2c-0.3,0.3-0.6,0.5-0.9,0.8c-1,0.8-1.4,1.7-1,2.9
		c0.2,0.5,0.2,1.1,0.3,1.6c0.1,1.1-0.2,1.2-1.2,0.7c-0.4-0.2-0.7-0.3-1.1-0.6c-1.2-0.8-2.3-0.9-3.5,0c-0.3,0.2-0.7,0.4-1.1,0.5
		C966.9,459.9,966.7,459.8,966.8,458.5z"/>
	<path fill="#151D38" d="M662.9,394c5.2,0,9.2,4,9.2,9.3c0,5.2-4.1,9.3-9.3,9.3c-5.2-0.1-9.2-4.2-9.2-9.4
		C653.6,397.9,657.6,394,662.9,394z"/>
	<path fill="#151D38" d="M607.2,405.1c-5.2-0.1-8.9-1.6-12.1-4.3c-0.3-0.3-0.6-0.5-0.8-0.8c-0.4-0.6-0.5-1.2,0-1.8
		c0.5-0.6,1.2-0.9,1.9-0.4c0.5,0.3,0.9,0.7,1.3,1c8.9,7.1,20.5,2.2,22.3-8.8c0.1-0.5,0.1-1,0.2-1.4c0.2-0.8,0.7-1.3,1.5-1.2
		c1,0.1,1.3,0.7,1.4,1.6c0,0.2,0,0.5,0,0.7C621.7,399.5,613.9,405.4,607.2,405.1z"/>
	<path fill="#151D38" d="M652,387.3c0,3.3-2.2,5.6-5.4,5.7c-3.3,0.1-5.8-2.4-5.8-5.6c0-3.1,2.5-5.6,5.6-5.7
		C649.4,381.6,652,384.2,652,387.3z"/>
	<path fill="#151D38" d="M580.4,383.3c3.1-0.1,5.7,2.3,5.7,5.4c0.1,3.2-2.2,5.7-5.4,5.8c-3.3,0.1-5.9-2.4-5.9-5.5
		C574.9,385.8,577.3,383.4,580.4,383.3z"/>
	<path fill="#151D38" d="M708.2,402.6c0,5.1-4.6,8.8-9.6,7.7c-0.5-0.1-1.1-0.3-1.6-0.6c-0.6-0.4-0.8-1-0.5-1.7
		c0.2-0.7,0.8-1,1.5-0.9c0.5,0.1,0.9,0.2,1.4,0.3c2.6,0.5,5.2-1.2,5.8-3.8c0.5-2.5-1.1-5-3.6-5.7c-0.5-0.1-1.1-0.2-1.6-0.3
		c-0.7-0.2-1-0.8-0.9-1.5c0-0.8,0.5-1.1,1.2-1.3c0.6-0.1,1.1,0,1.7,0.1C705.6,395.6,708.2,398.6,708.2,402.6z"/>
	<path fill="#151D38" d="M602.5,382.2c0.6,0.1,1.2,0.3,1.4,0.9c0.3,0.7,0.2,1.5-0.6,1.9c-1.2,0.7-2.5,1.4-3.8,2
		c-0.6,0.3-0.8,0.7-0.1,1.2c1.1,0.7,2.1,1.4,3.1,2.2c1,0.8,1.3,1.7,0.7,2.4c-0.7,0.8-1.6,0.6-2.4,0.1c-2-1.3-4-2.6-5.9-4.1
		c-1.3-0.9-1.3-2-0.1-2.7c2.3-1.3,4.7-2.5,7-3.7C602,382.2,602.3,382.2,602.5,382.2z"/>
	<path fill="#151D38" d="M568.2,387.2c0.1-4.5,3.7-8.6,8.2-9.3c0.5-0.1,1-0.1,1.4,0c0.7,0.1,1.1,0.6,1.2,1.3c0,0.6-0.2,1.1-0.8,1.3
		c-0.5,0.2-1.1,0.3-1.6,0.4c-3,0.8-5,3-5.3,6.1c0,0.2,0,0.3,0,0.5c-0.2,1.5-0.7,2.2-1.7,2.1C568.6,389.6,568.1,388.8,568.2,387.2z"
		/>
	<path fill="#151D38" d="M660,384.1c0,0.5,0,1-0.2,1.4c-0.3,0.6-0.8,0.9-1.6,0.9c-0.6-0.1-1-0.5-1.2-1c-0.1-0.4-0.1-0.8-0.1-1.2
		c-0.5-3.7-2.2-5.6-6-6.5c-0.3-0.1-0.6-0.1-0.9-0.3c-0.6-0.3-1-0.8-0.9-1.5c0.1-0.7,0.6-1.1,1.3-1.2c0.9-0.1,1.8,0,2.6,0.3
		C657,376.1,659.9,380,660,384.1z"/>
	<path fill="#151D38" d="M610.6,411.6c-0.5-0.1-1.2-0.2-1.9-0.4c-0.6-0.2-1-0.8-0.8-1.5c0.1-0.7,0.5-1.1,1.3-1.2c0.2,0,0.5,0,0.7,0
		c2,0.3,3.6-0.3,4.9-1.7c0.7-0.7,1.4-1,2.3-0.4c0.7,0.6,0.7,1.6-0.1,2.5C615.3,410.7,613.2,411.5,610.6,411.6z"/>
	<path fill="#151D38" d="M694.8,698c-9.2,0.3-19.4-7.5-19.3-19.7c0.1-10.8,8.9-19.4,19.7-19.4c10.8,0.1,19.4,8.7,19.4,19.6
		C714.6,689.8,705,698.5,694.8,698z"/>
	<path fill="#E86AA0" d="M711.5,678.4c0-9-7.5-16.6-16.5-16.5c-9,0.1-16.5,6.9-16.6,16.7c-0.1,9,7.5,16.4,16.6,16.4
		C704.3,695,711.5,687.7,711.5,678.4z"/>
	<path fill="#151D38" d="M434.3,712.9c-7.5,0-13.4-5.8-13.4-13.3c0-7.4,5.9-13.4,13.4-13.4c7.5,0,13.4,5.9,13.4,13.3
		C447.7,706.9,441.7,712.8,434.3,712.9z"/>
	<path fill="#E86AA0" d="M434.3,689.2c-5.7,0-10.4,4.6-10.4,10.3c0,5.7,4.6,10.4,10.3,10.4c5.7,0,10.4-4.6,10.4-10.3
		C444.7,693.9,440,689.2,434.3,689.2z"/>
</g>
</svg>
